<svg height="512pt" viewBox="0 -16 512 511" width="512pt" xmlns="http://www.w3.org/2000/svg"><path d="m184.519531.5h142.960938v80.371094h-142.960938zm0 0" fill="#f7b800"/><path d="m256 .5h71.480469v80.371094h-71.480469zm0 0" fill="#ff8f01"/><path d="m434.710938 208.839844h-357.421876l40.890626-127.96875h275.640624zm0 0" fill="#96e8ff"/><path d="m434.710938 208.839844h-178.710938v-127.96875h137.820312zm0 0" fill="#19cffb"/><path d="m404.769531 65.871094h-297.539062l-50.480469 157.96875h398.5zm-306.941406 127.96875 31.3125-97.96875h253.71875l31.3125 97.96875zm0 0" fill="#45686e"/><path d="m455.25 223.839844h-199.25v-30h158.171875l-31.3125-97.96875h-126.859375v-30h148.769531zm0 0" fill="#2a3b3b"/><path d="m386.355469 203.664062h-30v-13.285156c0-15.921875-12.953125-28.878906-28.875-28.878906-15.925781 0-28.878907 12.957031-28.878907 28.878906v13.285156h-30v-13.285156c0-32.464844 26.414063-58.878906 58.878907-58.878906 32.464843 0 58.875 26.414062 58.875 58.878906zm0 0" fill="#45686e"/><path d="m485.351562 279.851562v78.699219h-458.703124v-78.699219c0-17.339843 2.089843-33.953124 12.242187-48.011718l27.460937-38h379.308594l27.460938 38c10.148437 14.058594 12.230468 30.671875 12.230468 48.011718zm0 0" fill="#f7b800"/><path d="m485.351562 279.851562v78.699219h-229.351562v-164.710937h189.660156l27.460938 38c10.148437 14.058594 12.230468 30.671875 12.230468 48.011718zm0 0" fill="#ff8f01"/><path d="m126.230469 399.085938h-95.347657v40.699218c0 22.332032 18.167969 40.5 40.5 40.5h44.347657c22.332031 0 40.5-18.167968 40.5-40.5v-40.699218zm0 0" fill="#45686e"/><path d="m466.117188 399.085938h-110.347657v40.699218c0 22.332032 18.167969 40.5 40.5 40.5h44.347657c22.332031 0 40.5-18.167968 40.5-40.5v-40.699218zm0 0" fill="#2a3b3b"/><path d="m339.859375 358.550781h-167.71875l27.660156-94.179687h112.398438zm0 0" fill="#45686e"/><path d="m26.644531 289.871094h105.855469v55h-105.855469zm0 0" fill="#ffed4a"/><path d="m379.5 289.871094h105.855469v55h-105.855469zm0 0" fill="#f2ca62"/><path d="m312.199219 264.371094 27.660156 94.179687h-83.859375v-94.179687zm0 0" fill="#2a3b3b"/><path d="m0 334.871094h512v81h-512zm0 0" fill="#ff8701"/><path d="m256 334.871094h256v81h-256zm0 0" fill="#ba6100"/></svg>